<svg width="225" height="210" viewBox="0 0 225 210" fill="none" xmlns="http://www.w3.org/2000/svg">
    <ellipse cx="110.909" cy="114.521" rx="93.3551" ry="95.4793" fill="#F1F3FF" />
    <ellipse cx="23.4053" cy="50.0518" rx="5.85132" ry="5.98446" fill="#F1F3FF" />
    <ellipse cx="177.401" cy="11.1529" rx="10.9047" ry="11.1529" fill="#F1F3FF" />
    <ellipse cx="25.2671" cy="175.997" rx="10.3728" ry="10.6088" fill="#F1F3FF" />
    <ellipse cx="210.913" cy="165.661" rx="10.3728" ry="10.6088" fill="#F1F3FF" />
    <ellipse cx="190.7" cy="177.63" rx="5.05341" ry="5.16839" fill="#F1F3FF" />
    <path
        d="M215.785 132.926L217.414 140.797L225 142.487L217.414 144.177L215.785 152.048L214.156 144.177L206.57 142.487L214.156 140.797L215.785 132.926Z"
        fill="white" />
    <path
        d="M205.585 54.7834C205.805 53.7203 207.323 53.7203 207.543 54.7834L208.062 57.2899C208.142 57.675 208.44 57.9777 208.824 58.0633L211.398 58.6368C212.441 58.8693 212.441 60.3565 211.398 60.5889L208.824 61.1625C208.44 61.248 208.142 61.5507 208.062 61.9359L207.543 64.4423C207.323 65.5054 205.805 65.5054 205.585 64.4423L205.066 61.9359C204.986 61.5507 204.688 61.248 204.304 61.1625L201.73 60.5889C200.686 60.3565 200.686 58.8693 201.73 58.6368L204.304 58.0633C204.688 57.9777 204.986 57.675 205.066 57.2899L205.585 54.7834Z"
        fill="#C4CBF5" />
    <path
        d="M12.4262 120.612C12.6463 119.549 14.1647 119.549 14.3847 120.612L15.6443 126.698C15.724 127.084 16.0221 127.386 16.4061 127.472L22.4302 128.814C23.4736 129.046 23.4736 130.534 22.4302 130.766L16.4061 132.108C16.0221 132.194 15.724 132.497 15.6443 132.882L14.3847 138.968C14.1647 140.031 12.6463 140.031 12.4262 138.968L11.1667 132.882C11.087 132.497 10.7888 132.194 10.4049 132.108L4.38079 130.766C3.33742 130.534 3.33742 129.046 4.38079 128.814L10.4049 127.472C10.7888 127.386 11.087 127.084 11.1667 126.698L12.4262 120.612Z"
        fill="#C4CBF5" />
    <path
        d="M47.1495 27.1946C46.573 27.0692 46.573 26.247 47.1495 26.1216L50.5268 25.3871C50.7378 25.3412 50.9024 25.1758 50.9472 24.9645L51.6659 21.5747C51.7889 20.9945 52.617 20.9945 52.74 21.5747L53.4587 24.9645C53.5035 25.1758 53.6681 25.3412 53.8791 25.3871L57.2564 26.1216C57.8329 26.247 57.8329 27.0692 57.2564 27.1946L53.8791 27.9291C53.6681 27.975 53.5035 28.1404 53.4587 28.3517L52.74 31.7415C52.617 32.3217 51.7889 32.3217 51.6659 31.7415L50.9472 28.3517C50.9024 28.1404 50.7378 27.975 50.5268 27.9291L47.1495 27.1946Z"
        fill="#C4CBF5" />
    <circle cx="129.559" cy="80.4705" r="51.4705" fill="#DDE2FF" stroke="#C4CBF5" stroke-width="4" />
    <circle cx="129.559" cy="80.4705" r="42.9531" fill="url(#paint0_linear_1_1941)" stroke="#C4CBF5"
        stroke-width="4" />
    <path
        d="M61.0617 177.771L89.4495 138.343L90.7112 137.397L93.55 136.766H97.6505L99.8584 138.343L102.066 139.29L103.959 141.497L105.536 144.967L80.9332 191.334L78.0944 192.911H74.6248L69.8935 191.334L66.1084 189.757L62.6388 185.025L61.0617 183.133V177.771Z"
        fill="#DDE2FF" />
    <path d="M110.898 129.827L103.702 141.497" stroke="#C4CBF5" stroke-width="4" />
    <path d="M102.44 126.042L95.5005 136.451" stroke="#C4CBF5" stroke-width="4" />
    <path d="M91.3421 136.766L60.7463 178.717" stroke="#C4CBF5" stroke-width="4" />
    <path d="M105.221 144.336L80.618 191.965" stroke="#C4CBF5" stroke-width="4" />
    <path
        d="M90.7113 137.397L91.2305 137.108C92.3664 136.475 93.6717 136.214 94.9635 136.361V136.361C95.491 136.42 96.0087 136.547 96.504 136.739L97.393 137.082L97.6927 137.181C99.3625 137.738 100.88 138.676 102.124 139.92V139.92L103.103 140.899C103.5 141.296 103.848 141.741 104.137 142.224V142.224C104.476 142.788 104.732 143.398 104.897 144.035L105.221 145.282"
        stroke="#C4CBF5" stroke-width="4" />
    <path
        d="M81.2486 191.334L79.9052 191.938C78.6038 192.523 77.2002 192.848 75.7739 192.892V192.892C74.6662 192.927 73.5597 192.793 72.4925 192.494L71.5876 192.241L71.2841 192.138C68.6026 191.228 66.1606 189.726 64.1394 187.743V187.743L62.971 186.596C62.0574 185.7 61.3727 184.597 60.9746 183.38V183.38C60.4795 181.867 60.448 180.24 60.8842 178.709L61.0617 178.086"
        stroke="#C4CBF5" stroke-width="4" />
    <defs>
        <linearGradient id="paint0_linear_1_1941" x1="155.111" y1="35.5174" x2="107.792"
            y2="125.424" gradientUnits="userSpaceOnUse">
            <stop stop-color="#C4CBF5" />
            <stop offset="1" stop-color="#F1F3FF" />
        </linearGradient>
    </defs>
</svg>
    